<svg width="13" height="11" viewBox="0 0 13 11" fill="none" xmlns="http://www.w3.org/2000/svg">
<path d="M12.7344 5.4599L8.40074 1.12618C8.27704 1.00247 8.11216 0.93457 7.93636 0.93457C7.76036 0.93457 7.59558 1.00257 7.47187 1.12618L7.07841 1.51974C6.9548 1.64325 6.88671 1.80822 6.88671 1.98412C6.88671 2.15993 6.9548 2.33046 7.07841 2.45397L9.60658 4.98771H1.57446C1.21232 4.98771 0.926178 5.27122 0.926178 5.63346V6.18984C0.926178 6.55208 1.21232 6.86418 1.57446 6.86418H9.63527L7.07851 9.41206C6.9549 9.53577 6.8868 9.69625 6.8868 9.87216C6.8868 10.0479 6.9549 10.2107 7.07851 10.3343L7.47197 10.7266C7.59568 10.8503 7.76046 10.9177 7.93645 10.9177C8.11226 10.9177 8.27713 10.8494 8.40084 10.7257L12.7345 6.39209C12.8585 6.26799 12.9267 6.10233 12.9262 5.92624C12.9266 5.74956 12.8585 5.5838 12.7344 5.4599Z" fill="white"/>
</svg>
